<?xml version="1.0" standalone="no"?>
<!DOCTYPE svg PUBLIC "-//W3C//DTD SVG 20010904//EN"
 "http://www.w3.org/TR/2001/REC-SVG-20010904/DTD/svg10.dtd">
<svg version="1.0" xmlns="http://www.w3.org/2000/svg"
 width="24.000000pt" height="24.000000pt" viewBox="0 0 24.000000 24.000000"
 preserveAspectRatio="xMidYMid meet">
<metadata>
Created by potrace 1.16, written by Peter Selinger 2001-2019
</metadata>
<g transform="translate(0.000000,24.000000) scale(0.100000,-0.100000)"
fill="#000000" stroke="none">
<path d="M20 210 c-33 -33 -25 -64 33 -132 29 -35 59 -63 67 -63 22 0 120 122
120 150 0 53 -64 83 -102 48 -17 -15 -19 -15 -36 0 -25 23 -58 21 -82 -3z m78
-6 c20 -14 24 -14 44 0 30 21 51 20 73 -4 25 -28 13 -64 -46 -124 l-49 -51
-49 51 c-59 60 -71 96 -46 124 22 24 43 25 73 4z"/>
</g>
</svg>
